<svg width="39" height="64" viewBox="0 0 39 64" fill="none" xmlns="http://www.w3.org/2000/svg">
<path d="M34.0394 30.035L31.1926 30.3845C32.4018 26.4663 33.0238 22.4078 33.0417 18.2933L33.0586 14.4316C33.0607 13.9384 32.754 13.4967 32.291 13.3265C31.8278 13.1562 31.3082 13.2943 30.9905 13.6713L30.6457 14.0805C29.2111 15.7834 27.9685 17.6085 26.9252 19.5306C27.3445 14.502 28.0492 9.38466 29.0947 6.09811L29.099 6.08447C29.2604 5.57657 29.0586 5.02376 28.608 4.73917C28.1576 4.45456 27.5718 4.50973 27.1822 4.87351C25.078 6.83924 23.2444 9.09323 21.7363 11.5469C21.7235 8.75871 22.1453 5.95926 22.9908 3.31288C23.1422 2.83879 22.9777 2.32083 22.5806 2.02095C22.1833 1.72119 21.6403 1.70474 21.2256 1.98034L19.2072 3.3223C16.0656 5.41093 14.1254 8.74923 13.8172 12.3999C11.9886 10.7529 9.83859 9.49094 7.48295 8.70081L4.16791 7.58868C3.68569 7.42686 3.15331 7.59495 2.85156 8.00486C2.5497 8.41478 2.547 8.97262 2.84491 9.38541L3.10073 9.73996C5.72439 13.3754 7.85285 17.3108 9.4573 21.4756C8.59496 20.9835 7.68386 20.5721 6.73236 20.2529L3.95225 19.3203C3.46965 19.1583 2.93753 19.3266 2.63591 19.7366C2.33417 20.1465 2.33148 20.7045 2.62951 21.1173L2.84393 21.4144C5.43299 25.0018 7.44603 28.9385 8.83924 33.1292L5.19362 33.5768C4.55134 33.6557 4.09443 34.2404 4.1733 34.8828L6.53689 54.1327C7.20232 59.5522 12.1528 63.4198 17.5722 62.7544L29.0872 61.3405C34.5067 60.6751 38.3743 55.7246 37.7089 50.3052L35.3453 31.0553C35.2665 30.4129 34.6818 29.9561 34.0394 30.035ZM30.6999 17.8618L30.698 18.2831C30.6795 22.5192 29.9826 26.6924 28.6277 30.6995L25.6163 31.0692C26.2367 26.2969 27.9708 21.7979 30.6999 17.8618ZM25.7881 9.83501C24.625 16.0759 24.2652 23.7351 24.1723 26.3608C24.172 26.3676 24.1727 26.3742 24.1725 26.381C23.7287 28.0041 23.4101 29.6684 23.2213 31.3634L19.5187 31.818C18.6029 23.9223 20.9111 15.9908 25.7881 9.83501ZM16.1928 14.6535C15.7637 11.1602 17.2 7.77324 19.9652 5.65928C19.3529 8.70031 19.2263 11.8502 19.603 14.9182L19.6428 15.2424C19.6517 15.3153 19.668 15.3855 19.6894 15.4532C19.4089 16.0908 19.1473 16.7366 18.9093 17.3913C18.7297 17.8853 18.5632 18.3842 18.4085 18.8866C17.8347 17.5056 17.0896 16.1967 16.185 14.9899C16.2032 14.8813 16.2069 14.7683 16.1928 14.6535ZM6.73719 10.9227L6.73757 10.9229C12.3967 12.8212 16.5332 17.8529 17.3116 23.7645C16.9124 26.5238 16.8691 29.3349 17.1916 32.1036L16.9505 32.1333C16.4979 29.5509 15.3945 27.1297 13.7298 25.0905C13.4508 24.7486 13.1563 24.4217 12.8508 24.1069C11.407 19.444 9.35677 15.022 6.73719 10.9227ZM6.49957 22.6591C10.7023 24.2711 13.7994 28.0034 14.621 32.4193L11.2109 32.838C10.0601 29.2546 8.4816 25.8442 6.49957 22.6591ZM35.3826 50.5908C35.8906 54.7275 32.9383 58.5063 28.8016 59.0142L17.2865 60.4281C13.1499 60.936 9.3711 57.9838 8.86316 53.847L7.28506 40.9944L23.2782 39.0307C23.9205 38.9518 24.3774 38.3671 24.2985 37.7247C24.2196 37.0823 23.6348 36.6255 22.9925 36.7044L6.99943 38.6681L6.64239 35.7603L24.4306 33.5762C24.4351 33.5756 24.4396 33.575 24.4442 33.5745L29.6335 32.9373C29.6348 32.9372 29.6362 32.9372 29.6375 32.9371C29.6386 32.9369 29.6397 32.9366 29.6407 32.9364L33.1619 32.5041L35.3826 50.5908Z" fill="white"/>
</svg>
