<svg width="37" height="37" viewBox="0 0 37 37" fill="none" xmlns="http://www.w3.org/2000/svg">
<path d="M18.5202 14.7961C20.5855 14.7894 22.2304 13.1311 22.2229 11.061C22.2146 8.99101 20.567 7.34215 18.5009 7.34058C16.4175 7.33861 14.7536 9.01699 14.7698 11.1059C14.7851 13.1681 16.4485 14.8047 18.5202 14.7961Z" fill="url(#paint0_linear_187:544)"/>
<path d="M35.0319 0H1.96809C0.881309 0 0 0.880915 0 1.96809V35.0319C0 36.1191 0.881309 37 1.96809 37H35.0319C36.1191 37 37 36.1191 37 35.0319V1.96809C37 0.880915 36.1191 0 35.0319 0ZM18.5315 3.45045C22.7428 3.46107 26.124 6.9068 26.1031 11.1661C26.0807 15.3267 22.6444 18.6992 18.4398 18.685C14.2769 18.6708 10.8634 15.22 10.8871 11.0504C10.9119 6.83516 14.3277 3.43785 18.5315 3.45045ZM27.0624 21.6773C26.1311 22.6342 25.01 23.3254 23.7646 23.8091C22.5873 24.2641 21.2974 24.4948 20.0205 24.6475C20.2134 24.8577 20.3043 24.9597 20.424 25.0813C22.1575 26.823 23.8981 28.5577 25.6256 30.3046C26.2137 30.8993 26.3381 31.6374 26.0134 32.3297C25.6587 33.0874 24.8656 33.5846 24.087 33.5311C23.5942 33.4964 23.21 33.2512 22.8691 32.9084C21.5608 31.5917 20.2276 30.2999 18.9468 28.96C18.574 28.5695 18.3945 28.6423 18.0647 28.982C16.7488 30.3369 15.4125 31.6708 14.0675 32.9969C13.4633 33.5929 12.7449 33.6995 12.0431 33.3598C11.2984 32.9989 10.8253 32.2388 10.8619 31.474C10.8871 30.9576 11.1413 30.5632 11.496 30.2089C13.2106 28.4963 14.9212 26.7793 16.6327 25.0636C16.7464 24.9502 16.8519 24.8286 17.0169 24.6522C14.6831 24.4086 12.5788 23.8347 10.778 22.4255C10.5548 22.2504 10.3238 22.0811 10.1191 21.8851C9.33109 21.1278 9.25197 20.2614 9.87585 19.3675C10.4088 18.6031 11.3055 18.3977 12.2364 18.8365C12.417 18.9212 12.5887 19.0278 12.7532 19.1416C16.11 21.4482 20.722 21.5124 24.0917 19.2463C24.4251 18.9916 24.7821 18.7806 25.1962 18.6759C26.0012 18.4693 26.7498 18.7641 27.182 19.4679C27.6768 20.2697 27.6701 21.0538 27.0624 21.6773Z" fill="url(#paint1_linear_187:544)"/>
<defs>
<linearGradient id="paint0_linear_187:544" x1="15.1602" y1="7.98748" x2="21.7427" y2="14.782" gradientUnits="userSpaceOnUse">
<stop stop-color="#87CE66"/>
<stop offset="1" stop-color="#63AB41"/>
</linearGradient>
<linearGradient id="paint1_linear_187:544" x1="1.93863" y1="3.21043" x2="34.6056" y2="36.9399" gradientUnits="userSpaceOnUse">
<stop stop-color="#87CE66"/>
<stop offset="1" stop-color="#63AB41"/>
</linearGradient>
</defs>
</svg>
