<svg width="56" height="58" viewBox="0 0 56 58" fill="none" xmlns="http://www.w3.org/2000/svg">
<path d="M49.3236 42.7069L45.0756 42.1853L48.8702 11.2811C48.9835 10.3585 48.3141 9.51722 47.3756 9.40198L38.8792 8.35876L39.0844 6.68829C39.1976 5.76569 38.5287 4.92441 37.5902 4.80918L35.8909 4.60053C34.9524 4.4853 34.0998 5.13976 33.9865 6.06235L33.7814 7.73282L27.8337 7.00254L28.0388 5.33207C28.1521 4.40947 27.4832 3.5682 26.5447 3.45296L24.8454 3.24432C23.9069 3.12908 23.0543 3.78354 22.941 4.70614L22.7359 6.3766L15.0889 5.43767C14.1504 5.32244 13.2978 5.9769 13.1846 6.89949L12.0108 16.4589L7.8033 11.5947C7.17279 10.9324 6.14077 10.8359 5.39971 11.3698C4.65955 11.9317 4.49962 12.9673 5.03545 13.7255L11.2652 22.5313L9.39 37.8037L5.14161 37.282C4.20349 37.1669 3.3505 37.8213 3.23722 38.7439L3.03212 40.4143C2.91883 41.3369 3.58816 42.1783 4.52629 42.2934L9.26163 42.8749L5.83942 49.5055C5.58676 49.9941 5.59329 50.5744 5.85622 51.06C6.11959 51.5452 6.60615 51.8751 7.16078 51.9432L10.4504 52.3471C11.1647 52.4332 11.8556 52.0729 12.182 51.4439L16.1669 43.7227L24.0686 44.6929L23.3507 50.5397C23.2374 51.4623 23.9063 52.3036 24.8449 52.4189L26.5441 52.6275C27.4826 52.7427 28.3352 52.0883 28.4485 51.1657L29.1664 45.3189L37.0681 46.2891L39.0667 54.7449C39.2312 55.4342 39.8144 55.951 40.5283 56.0402L43.818 56.4441C44.3722 56.5122 44.9245 56.3099 45.2971 55.9027C45.6701 55.4952 45.8164 54.9337 45.6898 54.3985L43.9734 47.1369L48.7083 47.7183C49.6468 47.8335 50.4994 47.1791 50.6127 46.2565L50.8178 44.586C50.9311 43.6634 50.2622 42.8221 49.3236 42.7069ZM23.1153 39.4889C22.4264 39.1703 18.112 37.0094 18.6043 33.0001C18.6727 32.4042 18.6936 31.8033 18.6665 31.2038C19.0332 31.3171 19.4092 31.3994 19.7899 31.45C20.2243 31.5037 20.6633 31.5134 21.0992 31.4784C21.7532 31.4671 22.3944 31.3025 22.9695 30.9978C23.2342 30.8324 23.3846 30.5373 23.362 30.2291C23.339 29.9208 23.1466 29.6492 22.8603 29.5209C22.6348 29.4284 22.422 29.3091 22.226 29.1659C21.4878 28.5893 20.9252 27.8244 20.6 26.955L20.6011 26.9466C21.5391 27.4581 22.4125 28.0776 23.2025 28.7921C23.6295 29.1888 24.0268 29.6156 24.3899 30.0692C26.7159 32.994 30.423 34.8533 36.0183 35.9168C36.1186 35.9745 36.2297 36.0118 36.3447 36.0264C36.403 36.0281 36.4615 36.0236 36.5189 36.0128C37.6554 36.2168 38.7913 36.3768 39.8874 36.5114C40.8282 36.6269 41.741 36.7235 42.6034 36.8158C43.0807 36.867 43.5393 36.9163 43.9895 36.9673L43.3744 41.9764L23.1153 39.4889ZM15.9585 24.6549C16.3159 24.3806 16.7696 24.2574 17.2204 24.3127C17.6712 24.3681 18.0821 24.5974 18.3621 24.9501C18.5911 25.3329 18.7162 25.7674 18.7249 26.2109C18.7411 26.3395 18.7571 26.4695 18.7761 26.5945C18.8183 26.9129 18.8939 27.2264 19.002 27.5296C19.316 28.377 19.8014 29.1538 20.4283 29.8133C19.7858 29.7892 19.1538 29.644 18.5661 29.3852C17.4197 28.8408 16.4255 28.0279 15.6718 27.0183C15.391 26.6659 15.2634 26.2191 15.3171 25.7758C15.3711 25.3326 15.6018 24.9294 15.9585 24.6549ZM44.1957 35.3005C43.7382 35.2486 43.2695 35.1976 42.7824 35.1456C41.1187 34.9685 39.263 34.7635 37.4 34.4541L38.2279 27.7114C40.0358 27.6757 41.7273 26.8386 42.8303 25.4336C43.92 25.3885 44.8048 25.3749 45.4145 25.3744L44.1957 35.3005ZM38.4351 26.0241L38.7926 23.1126L40.418 21.8649C40.7803 21.5764 40.8396 21.055 40.5517 20.6925C40.2634 20.3303 39.7338 20.2607 39.3616 20.5363L38.1307 21.4812L37.1645 20.2665C36.87 19.909 36.3393 19.8485 35.9723 20.1302C35.6049 20.4123 35.5363 20.9325 35.818 21.3001L37.0933 22.9039L36.7358 25.8155C34.6517 25.1241 33.4317 22.9954 33.9126 20.8891C34.3939 18.783 36.4197 17.3838 38.6009 17.6516C40.7817 17.9194 42.4088 19.7671 42.3662 21.9271C42.3237 24.0872 40.6246 25.8575 38.4351 26.0241ZM34.2282 26.3121C34.8972 26.8705 35.6827 27.277 36.5287 27.5028L35.7142 34.1361C30.9066 33.1398 27.708 31.5152 25.7383 29.0367C25.5989 28.8628 25.447 28.6947 25.2973 28.5253C28.1986 27.5228 31.1883 26.7815 34.2283 26.3114L34.2282 26.3121ZM35.6858 6.271L37.3851 6.47964L37.18 8.15011L35.4807 7.94147L35.6858 6.271ZM24.6403 4.91478L26.3396 5.12343L26.1345 6.79389L24.4352 6.58525L24.6403 4.91478ZM14.8838 7.10814L47.1705 11.0724L45.6212 23.6906C45.1756 23.6894 44.5489 23.6944 43.7706 23.7176C44.6521 21.1401 43.6198 18.2966 41.2746 16.8404C38.929 15.3842 35.881 15.6942 33.9019 17.5905C31.9229 19.4867 31.5287 22.4749 32.9477 24.8186C29.8808 25.3433 26.8711 26.1481 23.9581 27.2234C22.8207 26.2644 21.5522 25.4675 20.1902 24.8555C20.0897 24.5168 19.9266 24.1987 19.7084 23.9181C19.1348 23.1975 18.2879 22.7377 17.3636 22.6451L13.5213 18.2053L14.8838 7.10814ZM5.73903 13.2429L6.50814 12.6896L15.4275 23.0016C15.2425 23.0934 15.0665 23.2022 14.902 23.3264C14.8602 23.3585 14.8292 23.402 14.79 23.4321C14.6906 23.4925 14.6052 23.5732 14.5395 23.6684C14.4635 23.7437 14.3898 23.8262 14.3221 23.9111L12.8283 21.798L6.44091 12.7644L5.73903 13.2429ZM12.735 24.6092L13.6109 25.8485C13.5729 26.643 13.8251 27.4253 14.3214 28.0552C15.036 28.9782 15.9064 29.7735 16.8943 30.406C16.9873 31.1986 16.9909 31.999 16.905 32.7914C16.6404 35.152 17.5868 37.4925 19.4297 39.0364L11.0893 38.0123L12.735 24.6092ZM10.6555 50.6766L7.36589 50.2727L11.0686 43.0967L14.3587 43.5007L10.6555 50.6766ZM26.7492 50.957L25.05 50.7484L25.7679 44.9016L27.4671 45.1102L26.7492 50.957ZM44.0223 54.7736L40.7334 54.3697L38.8763 46.5111L42.166 46.915L44.0223 54.7736ZM42.9658 45.3176L4.73139 40.623L4.9365 38.9525L49.1185 44.3774L48.9134 46.0478L42.9658 45.3176Z" fill="white"/>
</svg>
