<svg width="67" height="68" viewBox="0 0 67 68" fill="none" xmlns="http://www.w3.org/2000/svg">
<g clip-path="url(#clip0)">
<path d="M31.3759 50.8695C22.1403 49.7355 15.5492 41.2993 16.6832 32.0638C17.8172 22.8282 26.2534 16.2371 35.489 17.3711C44.7245 18.5051 51.3156 26.9413 50.1816 36.1769C49.0476 45.4124 40.6114 52.0035 31.3759 50.8695ZM35.032 21.0931C27.8487 20.2112 21.2872 25.3376 20.4052 32.5208C19.5233 39.704 24.6497 46.2655 31.8329 47.1475C39.0161 48.0295 45.5776 42.903 46.4596 35.7198C47.3416 28.5366 42.2152 21.9751 35.032 21.0931Z" fill="white"/>
<path d="M35.946 13.649C34.9182 13.5228 34.1873 12.5873 34.3135 11.5595L34.999 5.97644C35.1252 4.94869 36.0607 4.21772 37.0886 4.34392C38.1164 4.47013 38.8473 5.4057 38.7211 6.43345L38.0356 12.0165C37.9094 13.0443 36.9739 13.7752 35.946 13.649Z" fill="white"/>
<path d="M29.7764 63.8967C28.7485 63.7705 28.0176 62.8349 28.1438 61.8072L28.8294 56.2241C28.9555 55.1963 29.891 54.4654 30.9189 54.5916C31.9468 54.7178 32.6776 55.6534 32.5514 56.6811L31.8659 62.2642C31.7397 63.2919 30.8042 64.0229 29.7764 63.8967Z" fill="white"/>
<path d="M61.1193 39.4089L55.5362 38.7234C54.5083 38.5972 53.7775 37.6616 53.9037 36.6339C54.0299 35.6061 54.9654 34.8751 55.9932 35.0013L61.5763 35.6868C62.6042 35.8131 63.335 36.7486 63.2088 37.7764C63.0826 38.8041 62.1472 39.5351 61.1193 39.4089Z" fill="white"/>
<path d="M10.8716 33.2393L5.28854 32.5538C4.26067 32.4276 3.52982 31.492 3.65602 30.4642C3.78221 29.4365 4.71768 28.7055 5.74555 28.8317L11.3286 29.5172C12.3565 29.6434 13.0873 30.579 12.9611 31.6068C12.8349 32.6345 11.8995 33.3655 10.8716 33.2393Z" fill="white"/>
<path d="M50.9344 22.1289C49.2913 21.9271 48.6884 19.8216 50.0086 18.7903L54.4411 15.3272C55.2572 14.6897 56.4356 14.8343 57.073 15.6504C57.7106 16.4664 57.5659 17.6447 56.7498 18.2822L52.3173 21.7453C51.9092 22.0642 51.4106 22.1874 50.9344 22.1289Z" fill="white"/>
<path d="M11.0411 53.2968C9.39802 53.095 8.79512 50.9895 10.1153 49.9582L14.5478 46.4951C15.364 45.8577 16.5424 46.0023 17.1797 46.8183C17.8173 47.6343 17.6726 48.8126 16.8565 49.4501L12.4239 52.9133C12.0159 53.2319 11.5174 53.3553 11.0411 53.2968Z" fill="white"/>
<path d="M50.5195 58.1442C50.0432 58.0857 49.5893 57.8455 49.2706 57.4376L45.8075 53.005C45.1699 52.1889 45.3146 51.0107 46.1307 50.3732C46.9466 49.7356 48.125 49.8802 48.7625 50.6963L52.2256 55.1289C53.2569 56.4487 52.1626 58.3459 50.5195 58.1442Z" fill="white"/>
<path d="M19.3514 18.251C18.8751 18.1925 18.4213 17.9524 18.1025 17.5444L14.6393 13.1118C14.0017 12.2957 14.1464 11.1175 14.9625 10.48C15.7784 9.84237 16.9568 9.98706 17.5943 10.8031L21.0574 15.2357C22.0888 16.5556 20.9945 18.4527 19.3514 18.251Z" fill="white"/>
</g>
<defs>
<clipPath id="clip0">
<rect width="60" height="60" fill="white" transform="translate(7.31213 0.687836) rotate(7)"/>
</clipPath>
</defs>
</svg>
