<svg width="68" height="67" viewBox="0 0 68 67" fill="none" xmlns="http://www.w3.org/2000/svg">
<g clip-path="url(#clip0)">
<path d="M58.3537 48.9736L52.4947 16.949C51.8969 13.7001 48.8622 11.4683 45.5843 11.8708L17.7211 15.292C14.4407 15.6948 12.0362 18.5945 12.2445 21.8911L14.307 54.3819C14.417 56.119 15.2165 57.6857 16.5542 58.7959C17.8945 59.9059 19.58 60.4017 21.307 60.1897L52.9643 56.3026C54.6913 56.0906 56.2068 55.2018 57.2412 53.8002C58.2705 52.3993 58.6671 50.6857 58.3537 48.9736ZM55.2232 52.3201C54.6062 53.1615 53.6942 53.6942 52.6595 53.8212L21.0023 57.7082C19.9676 57.8353 18.954 57.539 18.1494 56.8746C17.3472 56.2075 16.8689 55.2662 16.8014 54.2241L14.7389 21.7333C14.6143 19.7538 16.0581 18.0148 18.0258 17.7732L45.8866 14.3523C47.8542 14.1107 49.676 15.4487 50.0311 17.3974L55.8901 49.422C56.0791 50.4493 55.8402 51.4786 55.2232 52.3201Z" fill="white"/>
<path d="M47.9926 20.1817C47.6416 18.2249 45.819 16.8795 43.8438 17.122L20.6778 19.9664C18.7027 20.2089 17.2597 21.9554 17.3925 23.9389L18.4169 39.1348C18.8145 42.373 28.978 41.6163 35.0029 40.8765C41.0276 40.1368 51.0724 38.4123 50.664 35.1074L47.9926 20.1817ZM34.6982 38.3952C26.8 39.365 22.0557 38.9627 20.8761 38.4853L19.8859 23.7738C19.8423 23.1117 20.3248 22.5285 20.9825 22.4478L44.1485 19.6033C44.806 19.5226 45.4154 19.9716 45.5305 20.6225L48.1314 35.1387C47.1075 35.8866 42.6014 37.4248 34.6982 38.3952Z" fill="white"/>
<path d="M22.9004 44.8812C20.1635 45.2173 18.211 47.7164 18.547 50.4534C18.8831 53.1904 21.3822 55.1428 24.1192 54.8068C26.8561 54.4707 28.8086 51.9717 28.4726 49.2347C28.1365 46.4977 25.6374 44.5452 22.9004 44.8812ZM23.8145 52.3253C22.4473 52.4932 21.1964 51.516 21.0285 50.1487C20.8606 48.7814 21.838 47.5306 23.2051 47.3627C24.5724 47.1948 25.8233 48.1722 25.9911 49.5393C26.1591 50.9066 25.1817 52.1575 23.8145 52.3253Z" fill="white"/>
<path d="M47.7143 41.8345C44.9773 42.1706 43.0248 44.6696 43.3609 47.4066C43.6969 50.1436 46.196 52.0961 48.933 51.76C51.67 51.424 53.6225 48.9249 53.2864 46.1879C52.9502 43.4509 50.4512 41.4985 47.7143 41.8345ZM48.6283 49.2786C47.261 49.4465 46.0102 48.4691 45.8423 47.1019C45.6744 45.7347 46.6518 44.4838 48.019 44.3159C49.3861 44.1481 50.6371 45.1253 50.805 46.4926C50.9729 47.8599 49.9955 49.1107 48.6283 49.2786Z" fill="white"/>
<path d="M39.3343 45.3823L31.8901 46.2963C31.2053 46.3804 30.7177 47.0045 30.8018 47.6894C30.8858 48.3742 31.51 48.8618 32.1948 48.7777L39.6389 47.8637C40.3238 47.7796 40.8114 47.1555 40.7273 46.4707C40.6432 45.7857 40.0191 45.2982 39.3343 45.3823Z" fill="white"/>
<path d="M41.1841 50.1926L31.2587 51.4113C30.5738 51.4954 30.0862 52.1195 30.1703 52.8044C30.2544 53.4892 30.8785 53.9769 31.5634 53.8928L41.4888 52.6741C42.1737 52.59 42.6613 51.9659 42.5772 51.281C42.493 50.5962 41.869 50.1085 41.1841 50.1926Z" fill="white"/>
<path d="M25.6645 57.1358C24.9797 57.2199 24.4921 57.844 24.5762 58.5288L24.8808 61.0102C24.9649 61.695 24.4773 62.3191 23.7925 62.4032C23.1076 62.4873 22.4836 61.9997 22.3995 61.3148L22.0948 58.8335C22.0108 58.1486 21.3866 57.661 20.7018 57.7451C20.0169 57.8292 19.5293 58.4533 19.6134 59.1382L19.9181 61.6195C20.17 63.6716 22.045 65.1365 24.0971 64.8845C26.1493 64.6326 27.6141 62.7576 27.3622 60.7055L27.0575 58.2242C26.9735 57.5393 26.3494 57.0517 25.6645 57.1358Z" fill="white"/>
<path d="M52.9596 53.7844C52.2747 53.8685 51.7871 54.4926 51.8712 55.1774L52.1759 57.6588C52.26 58.3436 51.7724 58.9677 51.0875 59.0518C50.4026 59.1359 49.7785 58.6483 49.6944 57.9634L49.3898 55.4821C49.3057 54.7973 48.6816 54.3097 47.9967 54.3937C47.3118 54.4778 46.8242 55.1019 46.9083 55.7868L47.213 58.2681C47.465 60.3203 49.3399 61.7851 51.3921 61.5332C53.4442 61.2812 54.9091 59.4062 54.6571 57.3541L54.3524 54.8728C54.2685 54.1879 53.6445 53.7003 52.9596 53.7844Z" fill="white"/>
<path d="M45.4384 4.8361C45.0053 4.38549 42.2415 2.2061 30.4327 3.65604C18.624 5.10598 16.4695 7.88924 16.1583 8.43126C15.8137 9.03025 15.9955 9.83404 16.5944 10.1786C16.8489 10.3236 17.1302 10.3773 17.3931 10.345C17.7505 10.3011 18.0781 10.0971 18.2776 9.75278C18.2951 9.73057 20.1966 7.43162 30.7374 6.13737C41.1517 4.85865 43.6212 6.57049 43.6361 6.56866C44.1129 7.06681 44.9055 7.08024 45.4035 6.6035C45.9014 6.12429 45.9177 5.33395 45.4384 4.8361Z" fill="white"/>
<path d="M34.8082 4.47897C34.1497 4.28532 33.4511 4.66827 33.2605 5.33148L31.4168 11.6709L28.097 5.96795C27.7489 5.36841 26.976 5.16613 26.3891 5.51519C25.792 5.86301 25.5888 6.62848 25.9363 7.22313L30.7247 15.4509C30.9743 15.8837 31.4597 16.1239 31.956 16.063C32.4523 16.002 32.8651 15.6515 33.0047 15.1685L35.6604 6.02668C35.854 5.36558 35.4716 4.67202 34.8082 4.47897Z" fill="white"/>
<path d="M52.4164 18.5882C51.7315 18.6723 51.2439 19.2964 51.328 19.9812C51.4121 20.6661 52.0362 21.1537 52.7211 21.0696C54.0883 20.9017 55.3392 21.8791 55.5071 23.2463L55.9641 26.9683C56.0482 27.6532 55.5605 28.2773 54.8757 28.3614L53.635 28.5137C52.9501 28.5978 52.4625 29.2219 52.5466 29.9068C52.6307 30.5917 53.2549 31.0791 53.9397 30.9951L55.1805 30.8427C57.2326 30.5907 58.6975 28.7158 58.4455 26.6637L57.9885 22.9416C57.6523 20.2046 55.1532 18.2521 52.4164 18.5882Z" fill="white"/>
<path d="M13.933 33.3885L12.6924 33.5408C12.0075 33.6249 11.3834 33.1373 11.2993 32.4525L10.8423 28.7304C10.6744 27.3631 11.6518 26.1123 13.019 25.9444C13.7038 25.8603 14.1914 25.2362 14.1074 24.5514C14.0233 23.8665 13.3992 23.3789 12.7143 23.463C9.97731 23.799 8.02482 26.2981 8.36088 29.0351L8.81789 32.7571C9.06986 34.8093 10.9448 36.2742 12.9969 36.0222L14.2377 35.8698C14.9225 35.7858 15.4101 35.1616 15.326 34.4768C15.242 33.7919 14.6179 33.3044 13.933 33.3885Z" fill="white"/>
</g>
<defs>
<clipPath id="clip0">
<rect width="60" height="60" fill="white" transform="translate(0.65625 7.31213) rotate(-7)"/>
</clipPath>
</defs>
</svg>
