<svg width="40" height="41" viewBox="0 0 40 41" fill="none" xmlns="http://www.w3.org/2000/svg">
<g clip-path="url(#clip0_187:540)">
<path d="M40 7.78744C38.5125 8.45625 36.9275 8.89956 35.275 9.11481C36.975 8.07444 38.2725 6.43956 38.8825 4.469C37.2975 5.43762 35.5475 6.12181 33.6825 6.50363C32.1775 4.86106 30.0325 3.84375 27.6925 3.84375C23.1525 3.84375 19.4975 7.62088 19.4975 12.2513C19.4975 12.9176 19.5525 13.5582 19.6875 14.1681C12.87 13.8272 6.8375 10.4781 2.785 5.37613C2.0775 6.63431 1.6625 8.07444 1.6625 9.62475C1.6625 12.5358 3.125 15.1162 5.305 16.6101C3.9875 16.5845 2.695 16.1924 1.6 15.5749C1.6 15.6005 1.6 15.6338 1.6 15.6671C1.6 19.7517 4.4425 23.1445 8.17 23.9261C7.5025 24.1131 6.775 24.2028 6.02 24.2028C5.495 24.2028 4.965 24.1721 4.4675 24.0593C5.53 27.388 8.545 29.8352 12.13 29.9146C9.34 32.1517 5.7975 33.4996 1.9625 33.4996C1.29 33.4996 0.645 33.4688 0 33.3843C3.6325 35.7853 7.9375 37.1562 12.58 37.1562C27.67 37.1562 35.92 24.3438 35.92 13.2379C35.92 12.8663 35.9075 12.5076 35.89 12.1514C37.5175 10.9675 38.885 9.48894 40 7.78744Z" fill="url(#paint0_linear_187:540)"/>
</g>
<defs>
<linearGradient id="paint0_linear_187:540" x1="2.09582" y1="6.73423" x2="30.8553" y2="42.3903" gradientUnits="userSpaceOnUse">
<stop stop-color="#87CE66"/>
<stop offset="1" stop-color="#63AB41"/>
</linearGradient>
<clipPath id="clip0_187:540">
<rect width="40" height="41" fill="white"/>
</clipPath>
</defs>
</svg>
