<svg width="49" height="49" viewBox="0 0 49 49" fill="none" xmlns="http://www.w3.org/2000/svg">
<g clip-path="url(#clip0_187:538)">
<path d="M40.6598 26.5988C39.8676 25.5983 40.0942 25.1533 40.6598 24.259C40.67 24.2488 47.2094 15.2124 47.8832 12.1478L47.8873 12.1458C48.2221 11.029 47.8873 10.2083 46.2682 10.2083H40.9109C39.5471 10.2083 38.9182 10.9126 38.5814 11.7007C38.5814 11.7007 35.8537 18.23 31.995 22.4623C30.7495 23.6853 30.1738 24.0773 29.4939 24.0773C29.1591 24.0773 28.6385 23.6853 28.6385 22.5685V12.1458C28.6385 10.8065 28.2567 10.2083 27.1276 10.2083H18.7037C17.8482 10.2083 17.3399 10.833 17.3399 11.4149C17.3399 12.6848 19.2692 12.9768 19.4693 16.5497V24.3019C19.4693 26.0005 19.161 26.3129 18.4771 26.3129C16.6559 26.3129 12.2357 19.7571 9.61625 12.254C9.08746 10.7983 8.57092 10.2103 7.19687 10.2103H1.8375C0.308292 10.2103 0 10.9147 0 11.7028C0 13.0952 1.82117 20.0185 8.46883 29.1651C12.8992 35.4085 19.1386 38.7916 24.8144 38.7916C28.226 38.7916 28.6425 38.0403 28.6425 36.7479C28.6425 30.7821 28.3342 30.2186 30.0431 30.2186C30.8353 30.2186 32.1991 30.6106 35.3841 33.6221C39.0244 37.193 39.6226 38.7916 41.6602 38.7916H47.0175C48.5447 38.7916 49.3185 38.0403 48.8734 36.558C47.8546 33.4404 40.9701 27.0275 40.6598 26.5988Z" fill="url(#paint0_linear_187:538)"/>
</g>
<defs>
<linearGradient id="paint0_linear_187:538" x1="2.56729" y1="12.6884" x2="24.1942" y2="50.9675" gradientUnits="userSpaceOnUse">
<stop stop-color="#87CE66"/>
<stop offset="1" stop-color="#63AB41"/>
</linearGradient>
<clipPath id="clip0_187:538">
<rect width="49" height="49" fill="white"/>
</clipPath>
</defs>
</svg>
