<svg width="511" height="4932" viewBox="0 0 511 4932" fill="none" xmlns="http://www.w3.org/2000/svg">
<path d="M38.5001 31L241.427 31C326.462 31 421.943 35.2389 471.996 103.982C496.361 137.446 513.029 183.102 508.001 243V243C500.779 329.037 363.873 337.937 292.113 289.927L281.606 282.897C184.157 217.7 51.8882 274.68 32.3275 390.285L28.8034 411.113C25.6225 429.912 25.5294 449.104 28.5276 467.933L53.0759 622.097C66.9038 708.936 64.4081 797.594 45.7169 883.518L44.4276 889.445C19.8768 1002.31 24.3329 1119.55 57.3795 1230.22V1230.22C87.3903 1330.73 93.8623 1436.79 76.294 1540.2L56.358 1657.54C35.0555 1782.93 42.0369 1911.49 76.7919 2033.84V2033.84C115.33 2169.5 119.661 2312.6 89.3983 2450.34L69.7971 2539.56C39.6059 2676.97 38.7518 2819.21 67.2907 2956.98L127.256 3246.46C152.854 3370.04 154.831 3497.34 133.081 3621.65L108 3765L66.3702 3896.11C27.9197 4017.2 24.747 4146.73 57.2232 4269.56L59.9087 4279.72C76.8544 4343.81 83.159 4410.24 78.5707 4476.38L75.6656 4518.25C72.5802 4562.72 77.4898 4607.39 90.1616 4650.13V4650.13C115.844 4736.75 108.701 4830.89 71 4913V4913" stroke="white" stroke-width="3" stroke-dasharray="10 10"/>
<circle cx="29" cy="465" r="29" fill="#7AC159"/>
<circle cx="29" cy="465" r="19.5" fill="white" stroke="white"/>
<circle cx="29" cy="465" r="15" fill="url(#paint0_linear_635:0)"/>
<circle cx="29" cy="29" r="29" fill="#7BC25A"/>
<circle cx="29" cy="29" r="19.5" fill="white" stroke="white"/>
<circle cx="29" cy="29" r="15" fill="url(#paint1_linear_635:0)"/>
<circle cx="61" cy="793" r="29" fill="#79C057"/>
<circle cx="61" cy="793" r="19.5" fill="white" stroke="white"/>
<circle cx="61" cy="793" r="15" fill="url(#paint2_linear_635:0)"/>
<circle cx="29" cy="988" r="29" fill="#78BF57"/>
<circle cx="29" cy="988" r="19.5" fill="white" stroke="white"/>
<circle cx="29" cy="988" r="15" fill="url(#paint3_linear_635:0)"/>
<circle cx="81" cy="1344" r="29" fill="#76BE55"/>
<circle cx="81" cy="1344" r="19.5" fill="white" stroke="white"/>
<circle cx="81" cy="1344" r="15" fill="url(#paint4_linear_635:0)"/>
<circle cx="51" cy="1677" r="29" fill="#75BD54"/>
<circle cx="51" cy="1677" r="19.5" fill="white" stroke="white"/>
<circle cx="51" cy="1677" r="15" fill="url(#paint5_linear_635:0)"/>
<circle cx="86" cy="2070" r="29" fill="#74BC53"/>
<circle cx="86" cy="2070" r="19.5" fill="white" stroke="white"/>
<circle cx="86" cy="2070" r="15" fill="url(#paint6_linear_635:0)"/>
<circle cx="108" cy="2292" r="29" fill="#73BB51"/>
<circle cx="108" cy="2292" r="19.5" fill="white" stroke="white"/>
<circle cx="108" cy="2292" r="15" fill="url(#paint7_linear_635:0)"/>
<circle cx="52" cy="2712" r="29" fill="#72B950"/>
<circle cx="52" cy="2712" r="19.5" fill="white" stroke="white"/>
<circle cx="52" cy="2712" r="15" fill="url(#paint8_linear_635:0)"/>
<circle cx="68" cy="2957" r="29" fill="#70B84F"/>
<circle cx="68" cy="2957" r="19.5" fill="white" stroke="white"/>
<circle cx="68" cy="2957" r="15" fill="url(#paint9_linear_635:0)"/>
<circle cx="136" cy="3303" r="29" fill="#6FB74E"/>
<circle cx="136" cy="3303" r="19.5" fill="white" stroke="white"/>
<circle cx="136" cy="3303" r="15" fill="url(#paint10_linear_635:0)"/>
<circle cx="134" cy="3598" r="29" fill="#6EB64C"/>
<circle cx="134" cy="3598" r="19.5" fill="white" stroke="white"/>
<circle cx="134" cy="3598" r="15" fill="url(#paint11_linear_635:0)"/>
<circle cx="76" cy="3863" r="29" fill="#6DB54C"/>
<circle cx="76" cy="3863" r="19.5" fill="white" stroke="white"/>
<circle cx="76" cy="3863" r="15" fill="url(#paint12_linear_635:0)"/>
<circle cx="36" cy="4068" r="29" fill="#6CB44B"/>
<circle cx="36" cy="4068" r="19.5" fill="white" stroke="white"/>
<circle cx="36" cy="4068" r="15" fill="url(#paint13_linear_635:0)"/>
<circle cx="78" cy="4370" r="29" fill="#6BB34A"/>
<circle cx="78" cy="4370" r="19.5" fill="white" stroke="white"/>
<circle cx="78" cy="4370" r="15" fill="url(#paint14_linear_635:0)"/>
<circle cx="87" cy="4649" r="29" fill="#6AB249"/>
<circle cx="87" cy="4649" r="19.5" fill="white" stroke="white"/>
<circle cx="87" cy="4649" r="15" fill="url(#paint15_linear_635:0)"/>
<circle cx="74" cy="4903" r="29" fill="#69B148"/>
<circle cx="74" cy="4903" r="19.5" fill="white" stroke="white"/>
<circle cx="74" cy="4903" r="15" fill="url(#paint16_linear_635:0)"/>
<defs>
<linearGradient id="paint0_linear_635:0" x1="15.5719" y1="452.603" x2="42.0586" y2="479.951" gradientUnits="userSpaceOnUse">
<stop stop-color="#87CE66"/>
<stop offset="1" stop-color="#63AB41"/>
</linearGradient>
<linearGradient id="paint1_linear_635:0" x1="15.5719" y1="16.6031" x2="42.0586" y2="43.9512" gradientUnits="userSpaceOnUse">
<stop stop-color="#87CE66"/>
<stop offset="1" stop-color="#63AB41"/>
</linearGradient>
<linearGradient id="paint2_linear_635:0" x1="47.5719" y1="780.603" x2="74.0586" y2="807.951" gradientUnits="userSpaceOnUse">
<stop stop-color="#87CE66"/>
<stop offset="1" stop-color="#63AB41"/>
</linearGradient>
<linearGradient id="paint3_linear_635:0" x1="15.5719" y1="975.603" x2="42.0586" y2="1002.95" gradientUnits="userSpaceOnUse">
<stop stop-color="#87CE66"/>
<stop offset="1" stop-color="#63AB41"/>
</linearGradient>
<linearGradient id="paint4_linear_635:0" x1="67.5719" y1="1331.6" x2="94.0586" y2="1358.95" gradientUnits="userSpaceOnUse">
<stop stop-color="#87CE66"/>
<stop offset="1" stop-color="#63AB41"/>
</linearGradient>
<linearGradient id="paint5_linear_635:0" x1="37.5719" y1="1664.6" x2="64.0586" y2="1691.95" gradientUnits="userSpaceOnUse">
<stop stop-color="#87CE66"/>
<stop offset="1" stop-color="#63AB41"/>
</linearGradient>
<linearGradient id="paint6_linear_635:0" x1="72.5719" y1="2057.6" x2="99.0586" y2="2084.95" gradientUnits="userSpaceOnUse">
<stop stop-color="#87CE66"/>
<stop offset="1" stop-color="#63AB41"/>
</linearGradient>
<linearGradient id="paint7_linear_635:0" x1="94.5719" y1="2279.6" x2="121.059" y2="2306.95" gradientUnits="userSpaceOnUse">
<stop stop-color="#87CE66"/>
<stop offset="1" stop-color="#63AB41"/>
</linearGradient>
<linearGradient id="paint8_linear_635:0" x1="38.5719" y1="2699.6" x2="65.0586" y2="2726.95" gradientUnits="userSpaceOnUse">
<stop stop-color="#87CE66"/>
<stop offset="1" stop-color="#63AB41"/>
</linearGradient>
<linearGradient id="paint9_linear_635:0" x1="54.5719" y1="2944.6" x2="81.0586" y2="2971.95" gradientUnits="userSpaceOnUse">
<stop stop-color="#87CE66"/>
<stop offset="1" stop-color="#63AB41"/>
</linearGradient>
<linearGradient id="paint10_linear_635:0" x1="122.572" y1="3290.6" x2="149.059" y2="3317.95" gradientUnits="userSpaceOnUse">
<stop stop-color="#87CE66"/>
<stop offset="1" stop-color="#63AB41"/>
</linearGradient>
<linearGradient id="paint11_linear_635:0" x1="120.572" y1="3585.6" x2="147.059" y2="3612.95" gradientUnits="userSpaceOnUse">
<stop stop-color="#87CE66"/>
<stop offset="1" stop-color="#63AB41"/>
</linearGradient>
<linearGradient id="paint12_linear_635:0" x1="62.5719" y1="3850.6" x2="89.0586" y2="3877.95" gradientUnits="userSpaceOnUse">
<stop stop-color="#87CE66"/>
<stop offset="1" stop-color="#63AB41"/>
</linearGradient>
<linearGradient id="paint13_linear_635:0" x1="22.5719" y1="4055.6" x2="49.0586" y2="4082.95" gradientUnits="userSpaceOnUse">
<stop stop-color="#87CE66"/>
<stop offset="1" stop-color="#63AB41"/>
</linearGradient>
<linearGradient id="paint14_linear_635:0" x1="64.5719" y1="4357.6" x2="91.0586" y2="4384.95" gradientUnits="userSpaceOnUse">
<stop stop-color="#87CE66"/>
<stop offset="1" stop-color="#63AB41"/>
</linearGradient>
<linearGradient id="paint15_linear_635:0" x1="73.5719" y1="4636.6" x2="100.059" y2="4663.95" gradientUnits="userSpaceOnUse">
<stop stop-color="#87CE66"/>
<stop offset="1" stop-color="#63AB41"/>
</linearGradient>
<linearGradient id="paint16_linear_635:0" x1="60.5719" y1="4890.6" x2="87.0586" y2="4917.95" gradientUnits="userSpaceOnUse">
<stop stop-color="#87CE66"/>
<stop offset="1" stop-color="#63AB41"/>
</linearGradient>
</defs>
</svg>
